<mxfile host="app.diagrams.net" modified="2023-10-12T21:37:11.942Z" agent="Mozilla/5.0 (Macintosh; Intel Mac OS X 10_15_7) AppleWebKit/537.36 (KHTML, like Gecko) Chrome/117.0.0.0 Safari/537.36" etag="5smCYKprvP4i-lh2FRxg" version="22.0.0" type="github">
  <diagram name="Page-1" id="hJeSxMsy2OeUZLzWM_a1">
    <mxGraphModel dx="1434" dy="765" grid="1" gridSize="10" guides="1" tooltips="1" connect="1" arrows="1" fold="1" page="1" pageScale="1" pageWidth="827" pageHeight="1169" math="0" shadow="0">
      <root>
        <mxCell id="0" />
        <mxCell id="1" parent="0" />
        <mxCell id="-gxJhb2Ihy3o_ycIm4hp-3" value="Palestine" style="ellipse;whiteSpace=wrap;html=1;aspect=fixed;" vertex="1" parent="1">
          <mxGeometry x="80" y="360" width="60" height="60" as="geometry" />
        </mxCell>
        <mxCell id="-gxJhb2Ihy3o_ycIm4hp-4" value="Israel" style="ellipse;whiteSpace=wrap;html=1;aspect=fixed;" vertex="1" parent="1">
          <mxGeometry x="370" y="240" width="60" height="60" as="geometry" />
        </mxCell>
        <mxCell id="-gxJhb2Ihy3o_ycIm4hp-5" value="Zionism/Zionist" style="text;html=1;strokeColor=none;fillColor=none;align=center;verticalAlign=middle;whiteSpace=wrap;rounded=0;" vertex="1" parent="1">
          <mxGeometry x="220" y="180" width="100" height="30" as="geometry" />
        </mxCell>
        <mxCell id="-gxJhb2Ihy3o_ycIm4hp-6" value="May 1948" style="text;html=1;strokeColor=none;fillColor=none;align=center;verticalAlign=middle;whiteSpace=wrap;rounded=0;" vertex="1" parent="1">
          <mxGeometry x="360" y="200" width="104" height="30" as="geometry" />
        </mxCell>
        <mxCell id="-gxJhb2Ihy3o_ycIm4hp-8" style="edgeStyle=orthogonalEdgeStyle;rounded=0;orthogonalLoop=1;jettySize=auto;html=1;entryX=1;entryY=0.5;entryDx=0;entryDy=0;curved=1;" edge="1" parent="1" source="-gxJhb2Ihy3o_ycIm4hp-7" target="-gxJhb2Ihy3o_ycIm4hp-4">
          <mxGeometry relative="1" as="geometry" />
        </mxCell>
        <mxCell id="-gxJhb2Ihy3o_ycIm4hp-7" value="Jewish immigrants&amp;nbsp;" style="text;html=1;strokeColor=none;fillColor=none;align=center;verticalAlign=middle;whiteSpace=wrap;rounded=0;" vertex="1" parent="1">
          <mxGeometry x="670" y="190" width="140" height="30" as="geometry" />
        </mxCell>
        <mxCell id="-gxJhb2Ihy3o_ycIm4hp-12" value="Ottoman Syria/Empire" style="ellipse;whiteSpace=wrap;html=1;aspect=fixed;fontFamily=Helvetica;fontSize=11;fontColor=default;" vertex="1" parent="1">
          <mxGeometry x="70" y="180" width="80" height="80" as="geometry" />
        </mxCell>
        <mxCell id="-gxJhb2Ihy3o_ycIm4hp-14" style="edgeStyle=orthogonalEdgeStyle;shape=connector;curved=1;rounded=0;orthogonalLoop=1;jettySize=auto;html=1;labelBackgroundColor=default;strokeColor=default;align=center;verticalAlign=middle;fontFamily=Helvetica;fontSize=11;fontColor=default;endArrow=classic;" edge="1" parent="1" source="-gxJhb2Ihy3o_ycIm4hp-13" target="-gxJhb2Ihy3o_ycIm4hp-5">
          <mxGeometry relative="1" as="geometry" />
        </mxCell>
        <mxCell id="-gxJhb2Ihy3o_ycIm4hp-13" value="British" style="ellipse;whiteSpace=wrap;html=1;aspect=fixed;fontFamily=Helvetica;fontSize=11;fontColor=default;" vertex="1" parent="1">
          <mxGeometry x="230" y="50" width="80" height="80" as="geometry" />
        </mxCell>
      </root>
    </mxGraphModel>
  </diagram>
</mxfile>
